<svg class="animated" id="freepik_stories-indoor-plants" xmlns="http://www.w3.org/2000/svg" viewBox="0 0 750 500" version="1.1" xmlns:xlink="http://www.w3.org/1999/xlink" xmlns:svgjs="http://svgjs.com/svgjs"><style>svg#freepik_stories-indoor-plants:not(.animated) .animable {opacity: 0;}svg#freepik_stories-indoor-plants.animated #freepik--plant-3--inject-62 {animation: 6s Infinite  linear wind;animation-delay: 0s;}svg#freepik_stories-indoor-plants.animated #freepik--plant-2--inject-62 {animation: 6s Infinite  linear wind;animation-delay: 0s;}svg#freepik_stories-indoor-plants.animated #freepik--plant-1--inject-62 {animation: 6s Infinite  linear wind;animation-delay: 0s;}            @keyframes wind {                0% {                    transform: rotate( 0deg );                }                25% {                    transform: rotate( 1deg );                }                75% {                    transform: rotate( -1deg );                }            }        </style><g id="freepik--background-simple--inject-62" class="animable" style="transform-origin: 372.112px 261.017px;"><path d="M269.89,127.5c101.5-49,205.89-113.12,323.79-86.89,36.56,8.13,69.83,28.46,92.32,58,60.13,79,55.24,200.11,22.57,289.09A160.18,160.18,0,0,1,692.13,421C659,471.18,603.09,473.55,549.2,459c-45.62-12.28-86-24.92-133.14-12.43-26.1,6.92-51.39,16.43-77.39,23.66-35.39,9.86-71.89,16.55-108.75,17.23-97.53,1.79-208.94-47-217.59-153.86A166.25,166.25,0,0,1,12,312.81c1.95-42.65,16.32-85.37,56.15-107.52,40.05-22.26,87.56-31.06,130.39-46.85C222.89,149.46,246.53,138.79,269.89,127.5Z" style="fill: rgb(146, 227, 169); transform-origin: 372.112px 261.017px;" id="elpcx4rp75m9" class="animable"></path><g id="el95ryzudjp4c"><path d="M269.89,127.5c101.5-49,205.89-113.12,323.79-86.89,36.56,8.13,69.83,28.46,92.32,58,60.13,79,55.24,200.11,22.57,289.09A160.18,160.18,0,0,1,692.13,421C659,471.18,603.09,473.55,549.2,459c-45.62-12.28-86-24.92-133.14-12.43-26.1,6.92-51.39,16.43-77.39,23.66-35.39,9.86-71.89,16.55-108.75,17.23-97.53,1.79-208.94-47-217.59-153.86A166.25,166.25,0,0,1,12,312.81c1.95-42.65,16.32-85.37,56.15-107.52,40.05-22.26,87.56-31.06,130.39-46.85C222.89,149.46,246.53,138.79,269.89,127.5Z" style="fill: rgb(255, 255, 255); opacity: 0.7; transform-origin: 372.112px 261.017px;" class="animable"></path></g></g><g id="freepik--Floor--inject-62" class="animable" style="transform-origin: 379.235px 447.89px;"><line x1="30.61" y1="447.89" x2="727.86" y2="447.89" style="fill: none; stroke: rgb(38, 50, 56); stroke-linecap: round; stroke-linejoin: round; transform-origin: 379.235px 447.89px;" id="elbf1ryy7utdr" class="animable"></line></g><g id="freepik--Furniture--inject-62" class="animable" style="transform-origin: 601.135px 355.77px;"><g id="elkdsr4567dt"><polygon points="562.72 263.65 513.72 447.89 576.98 447.89 562.72 263.65" style="opacity: 0.17; transform-origin: 545.35px 355.77px;" class="animable"></polygon></g><rect x="562.72" y="263.65" width="125.83" height="183.99" style="fill: rgb(171, 171, 171); stroke: rgb(38, 50, 56); stroke-linecap: round; stroke-linejoin: round; transform-origin: 625.635px 355.645px;" id="ely7i8kfnsv4a" class="animable"></rect><rect x="569.92" y="276.18" width="111.43" height="44.3" style="fill: rgb(219, 219, 219); stroke: rgb(38, 50, 56); stroke-linecap: round; stroke-linejoin: round; transform-origin: 625.635px 298.33px;" id="elz66wcjeuvh" class="animable"></rect><rect x="622.28" y="295.42" width="6.71" height="6.71" style="fill: rgb(38, 50, 56); transform-origin: 625.635px 298.775px;" id="elsyzvbztbwt" class="animable"></rect><rect x="569.92" y="331" width="111.43" height="44.3" style="fill: rgb(219, 219, 219); stroke: rgb(38, 50, 56); stroke-linecap: round; stroke-linejoin: round; transform-origin: 625.635px 353.15px;" id="eltw2n3ostren" class="animable"></rect><rect x="622.28" y="350.24" width="6.71" height="6.71" style="fill: rgb(38, 50, 56); transform-origin: 625.635px 353.595px;" id="elisbc42glwnq" class="animable"></rect><rect x="569.92" y="385.81" width="111.43" height="44.3" style="fill: rgb(219, 219, 219); stroke: rgb(38, 50, 56); stroke-linecap: round; stroke-linejoin: round; transform-origin: 625.635px 407.96px;" id="elpsnt13my3lg" class="animable"></rect><rect x="622.28" y="405.06" width="6.71" height="6.71" style="fill: rgb(38, 50, 56); transform-origin: 625.635px 408.415px;" id="eljiey316izze" class="animable"></rect></g><g id="freepik--Picture--inject-62" class="animable" style="transform-origin: 367.99px 140.26px;"><rect x="257.18" y="71.95" width="221.62" height="136.62" style="fill: rgb(38, 50, 56); stroke: rgb(38, 50, 56); stroke-linecap: round; stroke-linejoin: round; transform-origin: 367.99px 140.26px;" id="el2lyssgok0so" class="animable"></rect><rect x="264.96" y="78.93" width="206.05" height="122.66" style="fill: rgb(255, 255, 255); stroke: rgb(38, 50, 56); stroke-linecap: round; stroke-linejoin: round; transform-origin: 367.985px 140.26px;" id="el20zj05sgict" class="animable"></rect><path d="M464.22,79c2.15,10.21-4.2,24.55-7.42,28.31s-4.3-10.75-9.14-10.21,8.6,21.49,3.23,37.62-11.83,23.64-17.74,20.42.54-24.72-10.21-26.34-4.83,11.29-5.37,21.5-13.44,18.27-19.89,22.57-1.07-3.76-3.22-5.91-10.21,12.9-15,15.59-10.21-5.38-18.81-5.91-27.41,18.8-30.63,12.89,15-15,15.58-17.19S331,168.61,336.42,160s24.72-12.37,24.18-15.59-16.12-7.52-11.82-15.59,25.26-5.91,23.64-9.67-29.55-15-14.51-18.27,29.56,3.76,29-1.08-32.25,0-26.88-7.52,14.6-13.41,14.6-13.41Z" style="fill: rgb(146, 227, 169); transform-origin: 397.147px 134.762px;" id="elbioht66igs" class="animable"></path><path d="M405.07,201.32s-2.25,0-6.15-2.92-3.25-6.5-.32-6.17,9.75,5.2,9.75,5.2a26.37,26.37,0,0,0-7.48-8.13c-4.55-2.92-4.22-6.83-1.3-6.83S408,190.6,408,190.6s-2.61-8.78-2.28-13.33,3.9-5.2,4.55-2.92S411,189,411,189s2.28-15.28,5.53-17.23,5.85,2.6,4.87,4.87S413.88,190,413.88,190s6.82-5.2,9.75-4.55,4.23,4.55,1.3,5.85-10.4,4.55-10.4,4.55,9.75-2.6,11.7-.65-.65,5.86-.65,5.86" style="fill: rgb(38, 50, 56); stroke: rgb(38, 50, 56); stroke-linecap: round; stroke-linejoin: round; transform-origin: 411.576px 186.308px;" id="elj8asq0k6gmb" class="animable"></path><path d="M284.64,201.32s-3.95,0-10.82-5.13-5.72-11.44-.57-10.87,17.17,9.16,17.17,9.16-5.15-9.16-13.17-14.31-7.43-12-2.28-12,14.87,14.31,14.87,14.31-4.57-15.45-4-23.46,6.87-9.16,8-5.15S295,179.6,295,179.6s4-26.9,9.73-30.33,10.3,4.58,8.59,8.58-13.17,23.46-13.17,23.46,12-9.15,17.17-8,7.44,8,2.29,10.3-18.31,8-18.31,8,17.17-4.57,20.6-1.14-2.33,10.84-2.33,10.84" style="fill: rgb(146, 227, 169); transform-origin: 296.008px 174.878px;" id="el07qmhd8bw3am" class="animable"></path><path d="M443.13,201.87s-4.15-7-1.18-10,17.86,1,17.86,1-11.41-5-15.87-6.94-2.48-7.94,2-8.93S460.8,184,460.8,184s-9.92-16.87-11.41-20.34,2.48-10.42,7.45-7.45,8.43,26.3,8.43,26.3,0-18.85,1-22.33c.75-2.6,3-4.76,4.81-1.71L471,201.59Z" style="fill: rgb(38, 50, 56); stroke: rgb(38, 50, 56); stroke-linecap: round; stroke-linejoin: round; transform-origin: 455.98px 178.68px;" id="elcc7ohrirr16" class="animable"></path><path d="M368.71,153.56c-7.69,7.2-11.87,10.75-11.87,10.75" style="fill: none; stroke: rgb(38, 50, 56); stroke-linecap: round; stroke-linejoin: round; transform-origin: 362.775px 158.935px;" id="el13o41tewviwm" class="animable"></path><path d="M425,84.32s-4.24,17.12-29,42.38c-8.43,8.61-15.68,15.73-21.57,21.37" style="fill: none; stroke: rgb(38, 50, 56); stroke-linecap: round; stroke-linejoin: round; transform-origin: 399.715px 116.195px;" id="elo3hdf4j2kwp" class="animable"></path><path d="M320.3,78.85a14.84,14.84,0,0,1,3.22,10.23c-.54,5.91-7,.53-7,.53s15.05,16.66,15.59,22-7,4.3-7,4.3,9.14,9.67,8.06,14-8.6,2.15-8.6,2.15,4.3,5.91,3.23,12.36-8.6-5.37-8.6-5.37S316,145,312.77,145s-7.52-8.06-7.52-8.06-5.91,8.06-11.83,6.45-8.59-14-9.67-17.2-7.52,7-11.82,8.06-6.76-20.8-6.76-20.8L265,78.93Z" style="fill: rgb(38, 50, 56); stroke: rgb(38, 50, 56); stroke-linecap: round; stroke-linejoin: round; transform-origin: 299.129px 112.598px;" id="elynuwwgfryor" class="animable"></path><path d="M307.66,116.91A122.24,122.24,0,0,1,316.53,131" style="fill: none; stroke: rgb(38, 50, 56); stroke-linecap: round; stroke-linejoin: round; transform-origin: 312.095px 123.955px;" id="el8gsvew0whp7" class="animable"></path><path d="M297.57,104.18c2.16,2.51,4.35,5.17,6.52,8" style="fill: none; stroke: rgb(166, 166, 166); stroke-linecap: round; stroke-linejoin: round; transform-origin: 300.83px 108.18px;" id="eljp4u7t3fyzs" class="animable"></path><path d="M274.15,80.8a209.45,209.45,0,0,1,19.36,18.8" style="fill: none; stroke: rgb(166, 166, 166); stroke-linecap: round; stroke-linejoin: round; transform-origin: 283.83px 90.2px;" id="el62k4smtxcxh" class="animable"></path><path d="M330.1,160.73c0,1.78-2.05,5.64-3.06,7.43a.61.61,0,0,1-1.08,0c-1-1.79-3.06-5.65-3.06-7.43s2.06-5.56,3.06-7.3a.63.63,0,0,1,1.08,0C328,155.17,330.1,158.94,330.1,160.73Z" style="fill: rgb(38, 50, 56); transform-origin: 326.5px 160.805px;" id="elbgnjzbqk4zc" class="animable"></path><path d="M366,189.32c0,1.79-2.05,5.65-3.06,7.44a.63.63,0,0,1-1.09,0c-1-1.79-3.05-5.65-3.05-7.44s2.05-5.55,3.06-7.29a.62.62,0,0,1,1.08,0C363.94,183.77,366,187.54,366,189.32Z" style="fill: rgb(146, 227, 169); transform-origin: 362.4px 189.394px;" id="el4c6kz443v5i" class="animable"></path><path d="M464.41,128.66c0,1.78-2.05,5.65-3.06,7.44a.63.63,0,0,1-1.09,0c-1-1.79-3.05-5.66-3.05-7.44s2.05-5.56,3.06-7.29a.62.62,0,0,1,1.08,0C462.35,123.1,464.41,126.88,464.41,128.66Z" style="fill: rgb(146, 227, 169); transform-origin: 460.81px 128.734px;" id="elrxa3r6exhgt" class="animable"></path><path d="M340.08,141.13c-1.72.48-6-.47-8-1a.61.61,0,0,1-.29-1c1.45-1.45,4.63-4.45,6.35-4.93s5.9.51,7.85,1a.62.62,0,0,1,.28,1C344.89,137.67,341.79,140.66,340.08,141.13Z" style="fill: rgb(38, 50, 56); transform-origin: 339.027px 137.667px;" id="el9yy105ohin" class="animable"></path><path d="M428.89,168.63c-1.72.47-6-.48-8-1a.62.62,0,0,1-.29-1c1.45-1.44,4.63-4.45,6.35-4.92s5.91.5,7.85,1a.62.62,0,0,1,.28,1C433.7,165.17,430.61,168.15,428.89,168.63Z" style="fill: rgb(38, 50, 56); transform-origin: 427.841px 165.171px;" id="el789iz537j3d" class="animable"></path><path d="M386.55,192c-1.71.48-6-.47-8-1a.62.62,0,0,1-.29-1c1.46-1.45,4.64-4.45,6.36-4.93s5.9.51,7.85,1a.62.62,0,0,1,.28,1C391.36,188.53,388.27,191.52,386.55,192Z" style="fill: rgb(38, 50, 56); transform-origin: 385.506px 188.537px;" id="elgog3w5yw1v" class="animable"></path><path d="M340.93,83.35c1.7.53,4.78,3.64,6.19,5.13a.63.63,0,0,1-.32,1c-2,.42-6.31,1.23-8,.7s-4.7-3.61-6.06-5.09a.63.63,0,0,1,.33-1C335,83.66,339.23,82.82,340.93,83.35Z" style="fill: rgb(38, 50, 56); transform-origin: 339.931px 86.7671px;" id="el1s64nn85o3x" class="animable"></path><path d="M338.76,108.65c.92-1,4.1-2.24,5.6-2.76a.47.47,0,0,1,.63.55c-.33,1.56-1.12,4.87-2,5.91s-4.06,2.18-5.53,2.68a.48.48,0,0,1-.63-.56C337.1,112.94,337.84,109.69,338.76,108.65Z" style="fill: rgb(146, 227, 169); transform-origin: 340.911px 110.457px;" id="elqdto4wltlw" class="animable"></path><path d="M431.41,179c.92-1,4.1-2.24,5.6-2.77a.48.48,0,0,1,.63.56c-.33,1.56-1.12,4.87-2,5.9s-4.06,2.19-5.53,2.68a.48.48,0,0,1-.63-.55C429.75,183.25,430.49,180,431.41,179Z" style="fill: rgb(146, 227, 169); transform-origin: 433.561px 180.8px;" id="elg4rohazsgzd" class="animable"></path><path d="M342.41,191.39c.92-1,4.1-2.24,5.6-2.76a.48.48,0,0,1,.64.55c-.34,1.56-1.13,4.87-2,5.91s-4.05,2.18-5.53,2.68a.49.49,0,0,1-.63-.56C340.76,195.68,341.5,192.43,342.41,191.39Z" style="fill: rgb(38, 50, 56); transform-origin: 344.571px 193.196px;" id="elu2xldk5dcpn" class="animable"></path><path d="M276.75,161.11c-1.27-.55-3.4-3.2-4.37-4.46a.48.48,0,0,1,.33-.78c1.58-.17,5-.45,6.24.09s3.34,3.17,4.28,4.42a.48.48,0,0,1-.33.77C281.35,161.34,278,161.65,276.75,161.11Z" style="fill: rgb(38, 50, 56); transform-origin: 277.801px 158.528px;" id="el4esrv5bcp1k" class="animable"></path><path d="M271.24,140.86c.92-1,4.1-2.24,5.6-2.76a.48.48,0,0,1,.64.55c-.34,1.56-1.12,4.87-2,5.91s-4.05,2.18-5.53,2.68a.49.49,0,0,1-.63-.56C269.59,145.15,270.33,141.9,271.24,140.86Z" style="fill: rgb(146, 227, 169); transform-origin: 273.401px 142.666px;" id="eltrudrik3p3" class="animable"></path></g><g id="freepik--Sofa--inject-62" class="animable" style="transform-origin: 350.155px 355.32px;"><g id="el5h2p93xcf3e"><polyline points="221.75 302.3 178.25 447.28 483.39 447.28 517.66 417.53 221.75 302.3" style="opacity: 0.17; transform-origin: 347.955px 374.79px;" class="animable"></polyline></g><rect x="221.1" y="363.42" width="281.05" height="47.28" style="fill: rgb(38, 50, 56); stroke: rgb(38, 50, 56); stroke-linecap: round; stroke-linejoin: round; transform-origin: 361.625px 387.06px;" id="el7e5cl6ii48b" class="animable"></rect><polygon points="234.86 447.89 230.01 447.89 228.97 422.09 235.9 422.09 234.86 447.89" style="fill: rgb(38, 50, 56); stroke: rgb(38, 50, 56); stroke-linecap: round; stroke-linejoin: round; transform-origin: 232.435px 434.99px;" id="el7vehhinnbdm" class="animable"></polygon><polygon points="493.27 447.89 488.42 447.89 487.38 422.09 494.31 422.09 493.27 447.89" style="fill: rgb(38, 50, 56); stroke: rgb(38, 50, 56); stroke-linecap: round; stroke-linejoin: round; transform-origin: 490.845px 434.99px;" id="elzhmm57nyi9i" class="animable"></polygon><rect x="220.38" y="262.75" width="140.83" height="103.94" rx="3.27" style="fill: rgb(199, 199, 199); stroke: rgb(38, 50, 56); stroke-linecap: round; stroke-linejoin: round; transform-origin: 290.795px 314.72px;" id="el8pwnmzz53jr" class="animable"></rect><rect x="361.25" y="262.75" width="140.35" height="103.94" rx="3.27" style="fill: rgb(199, 199, 199); stroke: rgb(38, 50, 56); stroke-linecap: round; stroke-linejoin: round; transform-origin: 431.425px 314.72px;" id="el41pfk22gpmu" class="animable"></rect><polyline points="435.15 304.68 401.72 358.48 429.85 358.48 435.15 304.68" style="fill: rgb(38, 50, 56); stroke: rgb(38, 50, 56); stroke-linecap: round; stroke-linejoin: round; transform-origin: 418.435px 331.58px;" id="elrhu1o7k9k5p" class="animable"></polyline><path d="M497,295s-46.33-1.23-50.41-3.15c-15.3-7.2-13-4.05-13.5-1.8s.45,19.36-.45,22.51-9,30.15-12.15,35.1-4.5,7.2-4.05,9,3.15,2.7,3.15,2.7l12.6-.45,62.56.45s4.5,2.25,4.95-1.35-.45-13-.45-15.3,4.5-35.1,4.95-39.16,5.85-9.45,3.15-11.7S497,295,497,295Z" style="fill: rgb(255, 255, 255); stroke: rgb(38, 50, 56); stroke-linecap: round; stroke-linejoin: round; transform-origin: 462.229px 323.722px;" id="eltv9xd1r7s3d" class="animable"></path><rect x="220.11" y="359.18" width="140.67" height="31.75" rx="4.69" style="fill: rgb(199, 199, 199); stroke: rgb(38, 50, 56); stroke-linecap: round; stroke-linejoin: round; transform-origin: 290.445px 375.055px;" id="ellfoew995sjj" class="animable"></rect><rect x="220.11" y="390.87" width="281.48" height="31.75" rx="4.69" style="fill: rgb(199, 199, 199); stroke: rgb(38, 50, 56); stroke-linecap: round; stroke-linejoin: round; transform-origin: 360.85px 406.745px;" id="elianty1xo9oe" class="animable"></rect><rect x="360.78" y="359.18" width="140.67" height="31.75" rx="4.69" style="fill: rgb(199, 199, 199); stroke: rgb(38, 50, 56); stroke-linecap: round; stroke-linejoin: round; transform-origin: 431.115px 375.055px;" id="elp0e8gu44h6" class="animable"></rect><rect x="199.7" y="304.38" width="20.41" height="113.15" rx="4.41" style="fill: rgb(199, 199, 199); stroke: rgb(38, 50, 56); stroke-linecap: round; stroke-linejoin: round; transform-origin: 209.905px 360.955px;" id="eltc1h80sg9n" class="animable"></rect><rect x="501.65" y="304.38" width="20.41" height="113.15" rx="4.41" style="fill: rgb(199, 199, 199); stroke: rgb(38, 50, 56); stroke-linecap: round; stroke-linejoin: round; transform-origin: 511.855px 360.955px;" id="elk5wbunxzdmr" class="animable"></rect></g><g id="freepik--Table--inject-62" class="animable" style="transform-origin: 360.255px 421.885px;"><polygon points="258.5 403.03 258.5 447.89 265.36 447.89 265.36 433.33 455.15 433.33 455.15 447.89 462.01 447.89 462.01 403.03 258.5 403.03" style="fill: rgb(38, 50, 56); stroke: rgb(38, 50, 56); stroke-linecap: round; stroke-linejoin: round; transform-origin: 360.255px 425.46px;" id="elipxa9kd76fq" class="animable"></polygon><rect x="249.52" y="395.88" width="221.47" height="9.19" style="fill: rgb(38, 50, 56); stroke: rgb(38, 50, 56); stroke-linecap: round; stroke-linejoin: round; transform-origin: 360.255px 400.475px;" id="ellpa1bvr063a" class="animable"></rect></g><g id="freepik--plant-3--inject-62" class="animable" style="transform-origin: 626.659px 178.491px;"><path d="M592.13,141.7s12.81,38.42,14.66,49.93a212,212,0,0,0,6.13,25.06l-2.78-.18S600.67,178.82,599,171,592.13,141.7,592.13,141.7Z" style="fill: rgb(38, 50, 56); stroke: rgb(38, 50, 56); stroke-miterlimit: 10; transform-origin: 602.525px 179.195px;" id="el4qubdgmjqps" class="animable"></path><path d="M695.18,189.26c-1.93-2.83-7.6-11.86-12-12.37s-4.38.64-4,1.93-.77,3-.78,3a10.42,10.42,0,0,0-5.67,2.19c-3.35,2.58-21.27,11.47-26.94,15.21S628.66,213.5,628,214.4s2.45,1.16,2.45,1.16,9.16-11.47,17.28-15.85c7-3.81,24.58-14.31,30.1-17.19a7.58,7.58,0,0,0-1.48,4.81c.26,3.09,3.22,5.8,8.64,7.61s10.18,2.45,11.6,4.9,1.68,4.12,1.81,3.22S697.12,192.1,695.18,189.26Z" style="fill: rgb(38, 50, 56); transform-origin: 663.158px 196.163px;" id="el0t8zpc458fz" class="animable"></path><path d="M623.32,125.43s4.64,38.06,4,57.1a156.33,156.33,0,0,1-5.47,35.09l4.8-.34s9.11-25.81,10.6-30.78,2.26-7.42,2.26-7.42l-9.21,18.84,9.43-63.72-2.81-.66-7.12,52.63s-1.66-33.6-3.31-44.69A129.68,129.68,0,0,0,623.32,125.43Z" style="fill: rgb(38, 50, 56); stroke: rgb(38, 50, 56); stroke-miterlimit: 10; transform-origin: 630.79px 171.525px;" id="elxb7w37yx7wd" class="animable"></path><path d="M627.94,97.71c-3.73.22-7.45,5.7-7.45,5.7a10.54,10.54,0,0,0-7.24-9.64c-7.23-2.42-17.1,2.41-20.38,10.08s-3.29,12.49-2.85,14.47a22.5,22.5,0,0,0,1.09,3.5s-1.53-5.7,6.14-9.64,15.35-.22,11.18,2S594,121,592.87,123.58s1.53,4.82,2,5.92a4.16,4.16,0,0,0,1.53,1.75s1.32-6.36,3.07-8.55,15.35-5.92,9.87-2.41-11.18,11.84-11.18,11.84,6.35,4.82,7.89,5.92a8.77,8.77,0,0,1,2.41,2.85s7-7.46,14.91-10.53,13.37-14.25,14-20.82S631.67,97.49,627.94,97.71Zm.66,18c-2-1.1-6.36-5.48-6.36-5.48-1.31-2.63,3.07-.88,5.48,1.53S630.57,116.78,628.6,115.69Z" style="fill: rgb(146, 227, 169); stroke: rgb(38, 50, 56); stroke-linecap: round; stroke-linejoin: round; transform-origin: 613.616px 117.021px;" id="el5rzokri6jgo" class="animable"></path><path d="M619.66,105.15s-6,12.77-8.51,20a74.62,74.62,0,0,0-3,10.27" style="fill: none; stroke: rgb(38, 50, 56); stroke-miterlimit: 10; transform-origin: 613.905px 120.285px;" id="elyw7var3bu9c" class="animable"></path><path d="M617.16,108.65s-3.76-7.26-9-8-7.51,2.25-7.51,2.25" style="fill: none; stroke: rgb(38, 50, 56); stroke-miterlimit: 10; transform-origin: 608.905px 104.591px;" id="el395fzxgezcp" class="animable"></path><line x1="614.4" y1="114.41" x2="610.64" y2="115.92" style="fill: none; stroke: rgb(38, 50, 56); stroke-miterlimit: 10; transform-origin: 612.52px 115.165px;" id="elr0e37io1vr" class="animable"></line><path d="M616.66,115.66a45.27,45.27,0,0,1,4.5,9" style="fill: none; stroke: rgb(38, 50, 56); stroke-miterlimit: 10; transform-origin: 618.91px 120.16px;" id="el1jewdfrxxd9" class="animable"></path><path d="M642.85,119.85s-11.4-1.31-11.62,3.29.22,11.18,10.74,15.56,13.59,6.36,17.76,4.83,16.66-4.61,19.73-4.61S690,143.53,690,143.53s0-4.17-3.07-12.06-6.14-9.65-7.89-13.59-7.89-10.74-15.13-11.18-8.11.88-10.74.88-9.65-2.42-11.84,3.28S642.85,119.85,642.85,119.85Z" style="fill: rgb(146, 227, 169); stroke: rgb(38, 50, 56); stroke-linecap: round; stroke-linejoin: round; transform-origin: 660.597px 125.326px;" id="el3carm83aat4" class="animable"></path><path d="M658.78,122.63a51.74,51.74,0,0,0-15.93-2.78s-1.1,6.58.44,9.87" style="fill: none; stroke: rgb(38, 50, 56); stroke-linecap: round; stroke-linejoin: round; transform-origin: 650.625px 124.785px;" id="elxl0ffr38z8" class="animable"></path><path d="M678.8,133.87a58.7,58.7,0,0,0-15.56-9.58" style="fill: none; stroke: rgb(38, 50, 56); stroke-linecap: round; stroke-linejoin: round; transform-origin: 671.02px 129.08px;" id="eld3zg1hu80d" class="animable"></path><path d="M683.4,138.26c-.62-.66-1.25-1.3-1.89-1.91" style="fill: none; stroke: rgb(38, 50, 56); stroke-linecap: round; stroke-linejoin: round; transform-origin: 682.455px 137.305px;" id="ell7mrg9x6jx" class="animable"></path><path d="M654,121.39s2.19,7.89,4.6,11" style="fill: none; stroke: rgb(38, 50, 56); stroke-linecap: round; stroke-linejoin: round; transform-origin: 656.3px 126.89px;" id="el9e47jirwrcf" class="animable"></path><path d="M647.89,119.85s2.85-2.85,5.7-3.29,9.64-2.41,9.64-2.41" style="fill: none; stroke: rgb(38, 50, 56); stroke-linecap: round; stroke-linejoin: round; transform-origin: 655.56px 117px;" id="el8cns2k85b09" class="animable"></path><path d="M642.85,119.85s3.07-5.92,4.38-7,6.14-2.41,6.14-2.41" style="fill: none; stroke: rgb(38, 50, 56); stroke-linecap: round; stroke-linejoin: round; transform-origin: 648.11px 115.145px;" id="elfgosqryre9i" class="animable"></path><path d="M666.52,126s7-2.41,10.3-2" style="fill: none; stroke: rgb(38, 50, 56); stroke-linecap: round; stroke-linejoin: round; transform-origin: 671.67px 124.977px;" id="elrop7maz8n2" class="animable"></path><path d="M599.33,164.65s11.25,26.15,13.73,33.6,2.82,10.92,2.82,10.92l-.5,7.12,7.12-.33s-2.16-11.75-2.65-15.23-4.14-14.56-4.14-14.56l-5.13-4.47-6-18.37-1.32.66,5.46,18.54Z" style="fill: rgb(38, 50, 56); stroke: rgb(38, 50, 56); stroke-miterlimit: 10; transform-origin: 610.915px 189.81px;" id="elt8jglx6m46n" class="animable"></path><path d="M644.9,172.76s-5.15-4.12-7.22-3-4.77,5.41-3,11.21,8.51,11,12.76,14.06,8.51,5.28,8.64,7.09,0,5.41.9,3.74,2.84-7.35,3.35-7.74,1.81-2.58,2.2-9.93-3.36-13-7.74-15.6S647,168.12,644.9,172.76Z" style="fill: rgb(146, 227, 169); stroke: rgb(38, 50, 56); stroke-linecap: round; stroke-linejoin: round; transform-origin: 648.332px 187.929px;" id="elu2sb43ditp" class="animable"></path><path d="M645.42,174.7s11.6,16.37,12.38,21.14-.13,5.8-.13,5.8" style="fill: none; stroke: rgb(38, 50, 56); stroke-miterlimit: 10; transform-origin: 651.768px 188.17px;" id="els7nss9loh7g" class="animable"></path><path d="M643.61,185.4c.65-2.58,4.26-6.71,4.26-6.71s5.41-1.29,8.38.65" style="fill: none; stroke: rgb(38, 50, 56); stroke-miterlimit: 10; transform-origin: 649.93px 181.835px;" id="elanxe2cuh6fl" class="animable"></path><path d="M652.12,185.4s-3.48,3.35-4,4.77" style="fill: none; stroke: rgb(38, 50, 56); stroke-miterlimit: 10; transform-origin: 650.12px 187.785px;" id="elgo4mm7kxvt5" class="animable"></path><path d="M652.64,184.49s4.64-.64,6.44,1.68" style="fill: none; stroke: rgb(38, 50, 56); stroke-miterlimit: 10; transform-origin: 655.86px 185.29px;" id="el33apx2uh7wg" class="animable"></path><path d="M652.49,151.42s-5-3.29-8.33-.66-3.94,8.55-1.53,14.91,6.57,6.79,13.59,9.42A122.87,122.87,0,0,1,669.37,181s2.63-9.42,2.85-13.15-2.63-16.44-7.67-19.73S655.12,146.81,652.49,151.42Z" style="fill: rgb(146, 227, 169); stroke: rgb(38, 50, 56); stroke-linecap: round; stroke-linejoin: round; transform-origin: 656.7px 163.744px;" id="el3qe6xyd6483" class="animable"></path><path d="M653.15,153.17s10.74,17.32,12.93,22.14" style="fill: none; stroke: rgb(38, 50, 56); stroke-linecap: round; stroke-linejoin: round; transform-origin: 659.615px 164.24px;" id="el54cwik8klns" class="animable"></path><path d="M654.84,156.37s-3-.66-4.72,4.28-1.75,6.36-1.75,6.36" style="fill: none; stroke: rgb(38, 50, 56); stroke-linecap: round; stroke-linejoin: round; transform-origin: 651.605px 161.675px;" id="el3iwv55wdsma" class="animable"></path><path d="M657.8,161.2s-2.74,2.08-2.74,4.71a16.24,16.24,0,0,0,.33,3.84" style="fill: none; stroke: rgb(38, 50, 56); stroke-linecap: round; stroke-linejoin: round; transform-origin: 656.426px 165.475px;" id="elrt4drg1q4n" class="animable"></path><path d="M655.83,156.92s4.39-3,6.8-2.85a11.21,11.21,0,0,1,4.39,1.2" style="fill: none; stroke: rgb(38, 50, 56); stroke-linecap: round; stroke-linejoin: round; transform-origin: 661.425px 155.492px;" id="elcfbtkqoo7eo" class="animable"></path><path d="M658.57,162.29s1-2,5.27-.33a25.37,25.37,0,0,1,5.7,2.75" style="fill: none; stroke: rgb(38, 50, 56); stroke-linecap: round; stroke-linejoin: round; transform-origin: 664.055px 163.002px;" id="el0x7th4gcgkd" class="animable"></path><path d="M591.53,156s-5.93-.13-9.16,1.55-10.57,9.15-10.57,9.15l8-2.58s-1.94,1.55-2.2,5.42,1.94,10.57,2.45,11.73a31.48,31.48,0,0,1,1.16,3.74s8.13-3.87,13.41-6.45S604,165.67,604,165.67,598,155.62,591.53,156Z" style="fill: rgb(38, 50, 56); transform-origin: 587.9px 170.5px;" id="elgv2s7ptpez4" class="animable"></path><path d="M616.8,164.64s-3.1,8.9,2.45,14.44,14.44,11.34,14.44,11.73,4.64-6.7,5.8-11.73,2.32-13.15-2.58-19.08-11.35-7.61-14.57-4.64A18.5,18.5,0,0,0,616.8,164.64Z" style="fill: rgb(146, 227, 169); stroke: rgb(38, 50, 56); stroke-linecap: round; stroke-linejoin: round; transform-origin: 628.221px 172.375px;" id="elzxo2axf6h39" class="animable"></path><path d="M622.6,162.32s8,15.47,9.15,20.5" style="fill: none; stroke: rgb(38, 50, 56); stroke-miterlimit: 10; transform-origin: 627.175px 172.57px;" id="elc4o0gmx0dyt" class="animable"></path><path d="M625.56,167.48s7.22,1,9.8,4.77" style="fill: none; stroke: rgb(38, 50, 56); stroke-miterlimit: 10; transform-origin: 630.46px 169.865px;" id="elzydf3784rfm" class="animable"></path><path d="M624,166.83a26.56,26.56,0,0,0-2.07,7.35" style="fill: none; stroke: rgb(38, 50, 56); stroke-miterlimit: 10; transform-origin: 622.965px 170.505px;" id="el199vwkyszdu" class="animable"></path><path d="M627.63,173a15.2,15.2,0,0,0-1.29,5.16" style="fill: none; stroke: rgb(38, 50, 56); stroke-miterlimit: 10; transform-origin: 626.985px 175.58px;" id="elmzt0ozd6wg" class="animable"></path><path d="M626.21,162.84s6.45-1,10,1.67" style="fill: none; stroke: rgb(38, 50, 56); stroke-miterlimit: 10; transform-origin: 631.21px 163.583px;" id="el8irlq7zlkqp" class="animable"></path><path d="M596.69,150.2s-4.77.77-6.19,4.64,1.29,10.19,7.6,12.64,13.8,1.29,16,0,9.41-5,9.41-5l4.26-1.94-5.42-5.15a16,16,0,0,0-7.35-9.28c-6.06-3.61-11.21-7.61-15.73-5.29S594.36,147.49,596.69,150.2Z" style="fill: rgb(146, 227, 169); stroke: rgb(38, 50, 56); stroke-linecap: round; stroke-linejoin: round; transform-origin: 608.951px 154.523px;" id="elgb1ao7andur" class="animable"></path><path d="M619.85,158.26c3.06.83,4.94,1.22,4.94,1.22" style="fill: none; stroke: rgb(38, 50, 56); stroke-linecap: round; stroke-linejoin: round; transform-origin: 622.32px 158.87px;" id="elzrbfnaodarb" class="animable"></path><path d="M598.36,151s7.87,3.1,14.7,5.29c1.17.38,2.29.72,3.34,1" style="fill: none; stroke: rgb(38, 50, 56); stroke-linecap: round; stroke-linejoin: round; transform-origin: 607.38px 154.145px;" id="el8rrehwxd4ha" class="animable"></path><path d="M601.58,160.77c-1.28-2.58-.25-8.64-.25-8.64s.64-4.64,6.31-4.77" style="fill: none; stroke: rgb(38, 50, 56); stroke-linecap: round; stroke-linejoin: round; transform-origin: 604.289px 154.065px;" id="elf28wyabu2eo" class="animable"></path><path d="M610.35,161.55c-2.19-2.32-2.71-7-2.71-7s3.1-2.83,5.55-2.83" style="fill: none; stroke: rgb(38, 50, 56); stroke-linecap: round; stroke-linejoin: round; transform-origin: 610.415px 156.635px;" id="el9fzveedlsyc" class="animable"></path><path d="M587.27,133.57s.65-5.42-4.12-7.61-9.93-1-11.86.65-7.74,1.67-10.06,5.93-4.38,7.6-4.64,11.34-1.68,13.93-1.68,13.93,6.71-7.48,10.7-6.06,8.38,2.19,16.12.64,13.8-8.64,13.15-12.63S593.2,131.12,587.27,133.57Z" style="fill: rgb(146, 227, 169); stroke: rgb(38, 50, 56); stroke-linecap: round; stroke-linejoin: round; transform-origin: 574.919px 141.288px;" id="elvqj0f8kh1zq" class="animable"></path><path d="M587.27,133.57s-9.67,4.51-14.56,8.25-11.61,8.12-13.15,9.8" style="fill: none; stroke: rgb(38, 50, 56); stroke-linecap: round; stroke-linejoin: round; transform-origin: 573.415px 142.595px;" id="elkjfhomq2zt" class="animable"></path><path d="M576.83,139.24a10.48,10.48,0,0,1,.52,7.61" style="fill: none; stroke: rgb(38, 50, 56); stroke-linecap: round; stroke-linejoin: round; transform-origin: 577.331px 143.045px;" id="eliv4jw1r4rj" class="animable"></path><path d="M584.18,135.5s2.19,1.42,2.06,6.06" style="fill: none; stroke: rgb(38, 50, 56); stroke-linecap: round; stroke-linejoin: round; transform-origin: 585.213px 138.53px;" id="elanguef67j8q" class="animable"></path><path d="M582.5,135.5s-5.15-4.38-11.21-4.12" style="fill: none; stroke: rgb(38, 50, 56); stroke-linecap: round; stroke-linejoin: round; transform-origin: 576.895px 133.434px;" id="elnj9tyspnkv" class="animable"></path><path d="M575.28,139.63a13.3,13.3,0,0,0-7.6-2.19,16.32,16.32,0,0,0-7.35,2.45" style="fill: none; stroke: rgb(38, 50, 56); stroke-linecap: round; stroke-linejoin: round; transform-origin: 567.805px 138.663px;" id="elmrml4s5v9cc" class="animable"></path><path d="M559.94,146s4-2.32,6.32-.91" style="fill: none; stroke: rgb(38, 50, 56); stroke-linecap: round; stroke-linejoin: round; transform-origin: 563.1px 145.318px;" id="elc73gi27mwg" class="animable"></path><path d="M588.43,180a14.24,14.24,0,0,0-4.64,6.83,74.07,74.07,0,0,0-2.19,11s8-5.15,11.86-8.38,5.16-12.89,5.16-13.28-.9-3.86-.9-3.86Z" style="fill: rgb(38, 50, 56); transform-origin: 590.11px 185.07px;" id="elcf1ezj0b9wi" class="animable"></path><path d="M613.83,181.66s.65-4.9-4.38-3.22a17.85,17.85,0,0,0-9.8,9c-.9,2.45-2.19,8-2.19,8s.26-2.19,3.22-2.19a33.85,33.85,0,0,0,7.61-1.42s.26,1.81,3.09,4,6.32,6.57,6.32,5.93-.9-6.7,1.55-11.35,2.83-8-.26-8.89A7.55,7.55,0,0,0,613.83,181.66Z" style="fill: rgb(38, 50, 56); transform-origin: 609.329px 189.956px;" id="eljegp2iigdej" class="animable"></path><path d="M597.19,213.54h50.31a0,0,0,0,1,0,0v21.93a24.29,24.29,0,0,1-24.29,24.29h-1.72a24.29,24.29,0,0,1-24.29-24.29V213.54A0,0,0,0,1,597.19,213.54Z" style="fill: rgb(255, 255, 255); stroke: rgb(38, 50, 56); stroke-linecap: round; stroke-linejoin: round; transform-origin: 622.345px 236.65px;" id="elcpnb2cw6og7" class="animable"></path><rect x="609.9" y="256.6" width="24.87" height="7.24" style="fill: rgb(255, 255, 255); stroke: rgb(38, 50, 56); stroke-linecap: round; stroke-linejoin: round; transform-origin: 622.335px 260.22px;" id="elj91lii9m8q7" class="animable"></rect></g><g id="freepik--plant-2--inject-62" class="animable" style="transform-origin: 359.675px 349.544px;"><path d="M362.47,346s2.76-6.1,4.72-7.71,4.6-3.34,4.6-3.34l3.34-2.88s-.57-2.65,1.38-3.45a11.29,11.29,0,0,0,3.46-2.42s.23-2.65,1.49-3.23a13,13,0,0,0,2.88-1.38c.69-.57,1.61-1.38,2.19-1.38a8.55,8.55,0,0,0,3.22-1,3.15,3.15,0,0,1,2.19-.69,16.92,16.92,0,0,0,3.8-.8,37.15,37.15,0,0,1,6.56-.35c1,.23,2,.81,2.54.92s2.53.46,2.53.46l2.42,1.27,1.49,1.73a38.8,38.8,0,0,1,2.19,3.68c.23.69.46,1.84.46,1.84v1.85l-1.84,3.45-2.42.58s4-.24,3.11-5.53-3.11-5.76-4.26-6.68a11.2,11.2,0,0,0-6.33-2.07,29.2,29.2,0,0,0-6,.11,9,9,0,0,0-2.65.58c-.8.35-3.22,1-3.22,1l-2.3.8a2.32,2.32,0,0,0-1,.81,6,6,0,0,1-1,.92l-2.76,1.27L382,325.66l-.69,1.5-1.27,1.26-1.61,1.16-1,2.3-.35,1.61-1,1.84-1.72,1.38-.46,1.5L373,339s-2.08,1.15-2.42,2.3-2.19,3.8-2.19,4.37-2.19,2.08-2.19,2.08l-1.26,2.07-1.5,2.76L361,353.87l-.57,2.3s.46.46.11,2.42S358.56,354,362.47,346Z" style="fill: rgb(146, 227, 169); stroke: rgb(38, 50, 56); stroke-linecap: round; stroke-linejoin: round; transform-origin: 386.918px 338.144px;" id="elb65zdpybved" class="animable"></path><path d="M364.08,356.75s4.15-4.26,6.1-6,1.84-3.34,3.69-3.8a4.38,4.38,0,0,0,2.76-1.73c.69-.69,1-.34,2.42-.69s1.84.12,2.65-.8,1.49-1.27,2.07-.81.34,1.27,1.26.81,1.5-1.85,3.23-.58,1.49,1.5,2.3,1.84,1.5-.46,2.07.46,2.65,3.92,2.65,3.92l.58,5.52,1.26,2.88a67.48,67.48,0,0,0-3.22-6.33c-1.27-2-2.53-3.68-2.53-3.68a25,25,0,0,0-2.42-2.54,5.58,5.58,0,0,0-1.38,0s-.23.92-2.42.35-2.42-.69-2.88-.46a31.77,31.77,0,0,1-2.88,1.72c-.69.24-1.72.47-2.07.58s-.46.69-1.27.92-.34-1.73-2.53.58a14.07,14.07,0,0,0-2.76,3.68s-.69.58-1,.92-.46.92-.8,1.27a5.51,5.51,0,0,0-.69.92c-.35.46.8.69,1.26.46a21.13,21.13,0,0,1,3.92-1.84c1.15-.23,4.14.69,5.41.23s2.3-.23,2.64-.58a1.81,1.81,0,0,1,2.08.23c.8.58,2.88,2.19,2.88,2.19l1.38,1,2.41,4.26s-4.26-4.26-6-4.72a40.9,40.9,0,0,0-4.72-.81,30.56,30.56,0,0,0-4.26-.35l-2.53.58-2.31.46-2.18,1.5-1.5.92s-4.72.8-5.41.8S364.08,356.75,364.08,356.75Z" style="fill: rgb(146, 227, 169); stroke: rgb(38, 50, 56); stroke-linecap: round; stroke-linejoin: round; transform-origin: 379.184px 352.139px;" id="el2hudhsu0g4i" class="animable"></path><path d="M353.72,349.38s-6.91-4.95-7.6-6.22-4.37-4.49-5.52-5.41-2.88-2.07-2.88-2.07L335,334a8.43,8.43,0,0,0-2.87-.46,10.56,10.56,0,0,1-3.69-.46c-1-.35-1.26-.92-2.76-.69a31.44,31.44,0,0,0-4.49,1.38s-3.34-2.07-5.18-1.84a22.16,22.16,0,0,0-5.07,1.84s-2.64,1.38-3.22,2.3a28.44,28.44,0,0,0-1.52,4.71c-.15.57-.26,1-.32,1.28-.23.92-.46,3.11-.46,3.11l1,2.53.69.81s-1.38-2.42.7-7.83,2.07-5.07,4.14-6,4-1.15,4.83-.8,3.69,2.07,4.61,1.61a13.31,13.31,0,0,1,4-1.15,18,18,0,0,1,3.8,1.26l2.88.23A12.32,12.32,0,0,1,336,337.4s1.38.81,3.45,2.19a21.19,21.19,0,0,1,3,2.3l2.53,2.77,1.73,1.84L348,348l-7.59-4.61-6-1.73-2-1.61-2.53-.23a20.26,20.26,0,0,0-2.65-.69,9.93,9.93,0,0,0-3.8.81c-1.15.46-3.11.34-4.14.57a28.83,28.83,0,0,0-4.38,1.38L311.58,344l-1.72,1.72-.5.66-1,1.3-.11,1.61a9.52,9.52,0,0,0-1.16,3.8c0,1.73,4.38-7.48,5.42-8.06s3.33-.69,4.83-1.61,2.53-.8,3.57-1.38.92-.69,2-.69a6.71,6.71,0,0,0,2.18-.23c.92-.23.46-.46,1.85-.46s1.49-.12,2.3.23a12.38,12.38,0,0,0,2.65,1,6.66,6.66,0,0,1,2.18.7c.58.34,1.5.69,2,1a4.7,4.7,0,0,0,1.15.58l1.5.23,2.19,1.61,1.15,1,1.61.57,2.07,1.38,1.27.81,2.07,2.53.81,2,.34,1.72s1.61,2.19,1.84,2.54,1.38,1.61,1.38,1.61l2.65-.58S356.25,353,353.72,349.38Z" style="fill: rgb(146, 227, 169); stroke: rgb(38, 50, 56); stroke-linecap: round; stroke-linejoin: round; transform-origin: 330.761px 346.041px;" id="elhxqoq2sjx2" class="animable"></path><path d="M346.93,326.12s-3-2.42-6.56-4.95a17.3,17.3,0,0,0-5.19-2.88,20.63,20.63,0,0,0-5.29-1.49c-1,0-1.73-.92-3-1.38a6.46,6.46,0,0,0-3.11,0h-2.42a8.41,8.41,0,0,0-3,1c-.58.35-2.54.35-3.11.81a8.27,8.27,0,0,0-1.27,1.49s-.23,1.16-.46,2,1.15-2,3.57-2.76,1.5-1.15,4.14-1,2.88.58,4.26,0,3.8,1.61,5.42,2.19a25.48,25.48,0,0,0,3.45.92l4.26,3.22,1.73.23a10.32,10.32,0,0,1,1.84,1.5,9.45,9.45,0,0,0,2,1.5l2.19,1a1.31,1.31,0,0,0,.35,1,10,10,0,0,0,1.61,1.38s-7.48-2.53-8.75-2.3a3.19,3.19,0,0,0-2,1.38s.58,0-1,1.84A5.36,5.36,0,0,0,335,334a7.42,7.42,0,0,1,.35,2.53,5.55,5.55,0,0,0,.12,2.08l2.64,2.53s-1.84-3.92-1.72-5.18a12.21,12.21,0,0,1,.34-3.11c.35-.92.69-.58,1.38-1.15a15.92,15.92,0,0,0,1.38-1.38,1.85,1.85,0,0,1,1.27-.58c.46,0,.46-.23,1.27,0s1.84.46,1.84.46a1.83,1.83,0,0,1,1.61.12c1,.46,1.84.8,2.42,1s1.38.46,1.84.69c0,0,.81-.46-.34-2.53A16.9,16.9,0,0,0,346.93,326.12Z" style="fill: rgb(146, 227, 169); stroke: rgb(38, 50, 56); stroke-linecap: round; stroke-linejoin: round; transform-origin: 331.756px 328.185px;" id="elp9dwncyfysp" class="animable"></path><path d="M358.32,357.9s-.06-.31-.17-.84c-.68-3.35-3.15-15.66-3-18.73.12-3.57-.57-6.8-1.84-8.75s-3.91-3.8-4.26-5.18-.12-4-1.27-5.19-1.84-1.38-2.07-3,0-2-.8-2.19-2.31-.57-2.65-1.26-.12-1.73-.81-2.53-1.38-.35-2.07-1.16-1.38-2.07-1.73-2.3-1.15.35-1.61-.46-.69-1.5-1.5-1.38.69,0-2.64-.92-3.57-.92-4.26-.35-2.08,1.15-2.54,1.5a7.64,7.64,0,0,0-1.15,2,11.42,11.42,0,0,0,3.69-1.61c1.26-1,2.53-.81,3-.12s.23,2.42,1.15,2.42,1.61-.35,2,.11-1.73,2.19.57,3.46,3.92,1.26,4,1.84-.46,1.61.12,2.42,3.68,2,4.26,2.76-.46,1.27.46,2.88a34.57,34.57,0,0,0,2.19,3c.23.46.46,2.53,1,3.22s2,2.42,2,2.42-.92,2.42-.46,3.92,2.53,3.22,2.53,3.68-.23,1.5-.34,2.88,1,1.72,1,2.3-.11,3.11,0,4,1.38,1.61,1.5,2.76.46,4.72.46,4.72a32.83,32.83,0,0,1,2.88,3.57c0,.35.11,1.84.11,1.84l2.07.58" style="fill: rgb(146, 227, 169); stroke: rgb(38, 50, 56); stroke-linecap: round; stroke-linejoin: round; transform-origin: 341.135px 331.739px;" id="el442x6c7k22l" class="animable"></path><path d="M360.17,344.31s-.46-8.4-.81-10.7.23-3,.23-4.26-.34-1.39-.34-2.54.46-1.84.11-3.45a8.4,8.4,0,0,0-1.27-2.88s.58-4,0-5.18-.23-1.27-1.61-2.07-2.53-.81-3-1.73,0-1-.92-1.61-1.73-1-1.73-1,1.27,2.65,1,3.92a9.8,9.8,0,0,0,0,2.76,28.17,28.17,0,0,1,1.72,3.68c.12.7.24.81-.23,2.65a14.79,14.79,0,0,0,.23,5.07s.81,2,.58,2.65a19.31,19.31,0,0,0-.92,2.76,23.87,23.87,0,0,0,.92,3s-.58,3.34-.58,4,.93,1.84,1,2.65a21.48,21.48,0,0,1-.11,3c0,.35,1.15,1.73,1.26,2.65s.35,1.5.46,2.76.58,2.08.46,3-.34,2.41-.34,2.41l1.15,2.42.57,2,1.62-.35Z" style="fill: rgb(146, 227, 169); stroke: rgb(38, 50, 56); stroke-linecap: round; stroke-linejoin: round; transform-origin: 355.5px 334.58px;" id="elkg6lz2s8t7" class="animable"></path><path d="M365.12,329.46s1.26-1.38,1.95-2.3,1-.46,1.5-1.15,1.27-2.88,1.84-3.46,1.73.92,2.42-.11.58-3.92,2-4.61,1.95-.11,2.53-.34,3.8-4,4.95-3.57,1.15-.35,1.73-.92.92-1.5,1.72-1,1.5.69,2.08.35,1.84-1.27,2.53-1.15,1.5.92,2.3.46,1,0,3.69,1.15,3.8.8,4,2.88a16.2,16.2,0,0,1,0,3.68,9.7,9.7,0,0,0-3.57-4.72c-2.65-1.73-3.11-2.3-3.92-2.07s-3.11.46-3.57.92.23-.12-.46.46-1.61.57-2.88.92-2.76.35-2.76,1.15,0,1.38-1,1.73a14.09,14.09,0,0,0-3.23,1.38c-.57.46-.11,1.27-1,1.84s-1.62.69-2.31,1.15-.57.81-.8,1.61a4.68,4.68,0,0,1-1.38,2c-.58.58-.35,3.34-.46,3.69a5.88,5.88,0,0,1-1.39,2.07,2.72,2.72,0,0,0-.92,2.19c0,.8.46.46-.46,2.18S369,338.1,369,338.1s1.27.69.46,1.49-1.15,3.57-1.72,3.46-1.16,2.07-1.16,2.07l-2.53,2.07.81,2.65-3.11,1.26.23,1.62-.35,1.38S357.06,345.23,365.12,329.46Z" style="fill: rgb(146, 227, 169); stroke: rgb(38, 50, 56); stroke-linecap: round; stroke-linejoin: round; transform-origin: 380.402px 332.645px;" id="elud22tphb9x9" class="animable"></path><path d="M363.16,346s3.91-6.91,5.87-7.94,4.72-2.08,4.72-3.23a3.14,3.14,0,0,1,1.38-2.76,15.44,15.44,0,0,1,3.46-1.61s1.84-2,3-2a7.11,7.11,0,0,0,2.88-1.15s1.49-.69,2.19,0a2.72,2.72,0,0,0,2.64.34,3,3,0,0,1,3,1.5c.57,1.15,2.64,1,2.64,1s1.62.57,2,1.61,1.5.69,2.42,1.73,1.73,1.72,1.5,3.33,1.49,2.54.11,3.46-2.19,1.38-2.19,1.84a2.65,2.65,0,0,1-1.61,1.73,13.7,13.7,0,0,1-1.72.11s4-4,4.14-4.95.92-1.26-.35-2.53a3.84,3.84,0,0,1-1.38-2.07c-.46-1-.23-1.15-2.07-1.62a9.15,9.15,0,0,1-3.34-1.72,2.12,2.12,0,0,0-1.61-.35c-.81.12-1.84-1.38-3.11-1.49s-1.38.34-2.42.46-1-.92-2.18,0-.46,1.95-1.38,2.3-2.77-.12-3.69.69a11.73,11.73,0,0,0-2,2.53c-.46.69-1.49.92-1.72,1.38s.23.92-.46,1.5-2.08.46-2.42,1.15-.92,2-.92,2l-1.61,1.73a8.31,8.31,0,0,1-.58,2.64,10.75,10.75,0,0,1-2.19,2.08s-.11,1.72-1.26,2.07a29.9,29.9,0,0,0-3.11,1.26l-.81,2Z" style="fill: rgb(146, 227, 169); stroke: rgb(38, 50, 56); stroke-linecap: round; stroke-linejoin: round; transform-origin: 381.246px 340.012px;" id="elbbq4lnmf7gi" class="animable"></path><path d="M360.4,356.17s.11-12.78-.12-15.54-1-3-.34-4.49,1.84-3.69,1.84-3.69a8.44,8.44,0,0,1,.8-2.87c.58-.81.93-1,1.27-1a4.09,4.09,0,0,0,1.5-.58c.69-.34,4.14.46,4.37,1.62a4.58,4.58,0,0,1-.34,2.41,18,18,0,0,0,.11,1.85,5.64,5.64,0,0,1-.11,1.84l-.23,1L369,338.1s-.92-3.92-.92-4.61a10.28,10.28,0,0,0-.58-2.88s-1.61,1.61-1.72,2.65a19.07,19.07,0,0,0-.23,3.8c.11,1.27.23,4.95.23,4.95l-.69,2.76-1,2.42s-1,3.57-1.38,4.61-1,6.79-1,6.79-1,1.72-2,1.26S360.4,356.17,360.4,356.17Z" style="fill: rgb(146, 227, 169); stroke: rgb(38, 50, 56); stroke-linecap: round; stroke-linejoin: round; transform-origin: 364.576px 343.925px;" id="elmj2olnfmote" class="animable"></path><path d="M367.53,330.61a2.48,2.48,0,0,0-2.41-1.15,5.51,5.51,0,0,0-2.65,1.15" style="fill: rgb(146, 227, 169); stroke: rgb(38, 50, 56); stroke-linecap: round; stroke-linejoin: round; transform-origin: 365px 330.026px;" id="el5csmzd5zrjh" class="animable"></path><path d="M360.51,358.59s-.11-6.33-.11-9.21.46-5.07-.46-5.87-3.23.11-3.23.11,1.27.92,1.27,4.84v5.87l.34,3.57.47,1.49Z" style="fill: rgb(146, 227, 169); stroke: rgb(38, 50, 56); stroke-linecap: round; stroke-linejoin: round; transform-origin: 358.613px 351.285px;" id="elvew4izatdu" class="animable"></path><rect x="337.53" y="356.66" width="42.28" height="36.68" style="fill: rgb(255, 255, 255); stroke: rgb(38, 50, 56); stroke-linecap: round; stroke-linejoin: round; transform-origin: 358.67px 375px;" id="el40evo7toxkz" class="animable"></rect><path d="M359.94,343.51a12.92,12.92,0,0,0-4.26-1.5c-2.08-.23-4.95.11-5.53.81a10.18,10.18,0,0,1-1.5,1.38s-1.49.23-1.72,1.26a5,5,0,0,1-1.38,2.08s-1.62,1.15-1.62,1.84a3.18,3.18,0,0,1-.46,1.72c-.34.7-2.07,2.42-2.3,3.46s-.23,2.53-.92,3.22-1.5,1.5-1.5,2.42-.23,3.34-.23,3.34l-1.95,3.34a20.78,20.78,0,0,1,0,2.64,7.11,7.11,0,0,0-.69,2.08c0,.8-.12,2.18-.12,2.18a10.43,10.43,0,0,0,.46,2.19c.35.92-.23,1.38.81,1.84l1,.46,1-.34s-1.15-1.73-.92-2.76a12,12,0,0,1,1.38-3,6.73,6.73,0,0,0,.46-2.53s.46-1,.92-1.84a11.59,11.59,0,0,0,.81-2l1.61-2.88.69-2.65,1.38-1.72.69-2.19,1-1a8,8,0,0,1,1.15-2.18,15.06,15.06,0,0,0,1.61-2.08l1-1.15s.46-.46,1.15-1.26.92-1.38,1.26-1.73,1.27-1,1.27-1l.92-1.15S359.25,342.7,359.94,343.51Z" style="fill: rgb(146, 227, 169); stroke: rgb(38, 50, 56); stroke-linecap: round; stroke-linejoin: round; transform-origin: 347.85px 360.104px;" id="eluh3o33xqcn" class="animable"></path><path d="M381,348.8a14,14,0,0,0-.46-3.11c-.34-1.38-1.26-.8-1.49-1.15a16.43,16.43,0,0,0-3.11-2.19c-1.38-.8-1.15,0-1.73.35s-.8,0-1.38-.11-1.15.57-1.5.69-1.95-.93-3.56-.23-.81,1.49-1.16,2.07-1,.57-1.84,1.26-.57,1.73-.92,2.42-2.76,1.38-3.11,2.65c-.26,1-.72,3.86-.93,5.19h3.55l.72-1.28a17.42,17.42,0,0,0,2.42-1.49c.46-.46.23-2.19.57-2.42a22.13,22.13,0,0,0,2.77-2.88c.46-.69-.23-1-.12-2.07s.81-1.38,1.15-2.07,4-.35,4.38-.35,1.38,1.15,1.38,1.15l.81.58,1.61,2.3.57,2.3c-.34.58,0,.69-.34,1.73s0,1.38-.46,2.42-3.69,11.63-3.69,11.63,2.08-2.42,2.65-3,1.15-2.76,1.5-4.14a15.91,15.91,0,0,1,2-3.69s.7-2.64.93-3.33S381,349.38,381,348.8Z" style="fill: rgb(146, 227, 169); stroke: rgb(38, 50, 56); stroke-linecap: round; stroke-linejoin: round; transform-origin: 371.022px 354.098px;" id="elhi9v176bxx9" class="animable"></path><rect x="334.8" y="388.3" width="47.06" height="7.52" style="fill: rgb(255, 255, 255); stroke: rgb(38, 50, 56); stroke-linecap: round; stroke-linejoin: round; transform-origin: 358.33px 392.06px;" id="ellermasagx0o" class="animable"></rect></g><g id="freepik--plant-1--inject-62" class="animable" style="transform-origin: 116.965px 268.9px;"><path d="M103.27,180.43s0,34.68.74,38.39a8.61,8.61,0,0,0,2.93,5.24l2.82,166,6.13.37-3.71-107.78-1.4-58.57s2.51.14,2.69-6S117,187.29,117,187.29l-2.41-.74s-3.71,30.61-4.45,31.53-2.79-1.85-3.16-4.82,0-33,0-33Z" style="fill: rgb(166, 166, 166); stroke: rgb(38, 50, 56); stroke-linecap: round; stroke-linejoin: round; transform-origin: 110.135px 285.345px;" id="els45pxgh697b" class="animable"></path><path d="M110.78,224.06l.88-.34c.74-.53,1.7-1.94,1.81-5.64.19-6.12,3.53-30.79,3.53-30.79l-2.41-.74s-3.71,30.6-4.45,31.53-2.79-1.85-3.16-4.82,0-33,0-33l-3.71.19s0,34.68.74,38.39a8.61,8.61,0,0,0,2.93,5.24S107.84,225.19,110.78,224.06Z" style="fill: rgb(38, 50, 56); stroke: rgb(38, 50, 56); stroke-linecap: round; stroke-linejoin: round; transform-origin: 110.135px 202.414px;" id="elnq3318hynde" class="animable"></path><path d="M109.59,179.84s7-9.83,18.37-14.47,31.72-7.6,32.46-7.6-19.11,6.3-25.23,9.08-14.09,7.05-16.51,9.65S105,197.28,105,197.28,105.33,189.86,109.59,179.84Z" style="fill: rgb(38, 50, 56); stroke: rgb(38, 50, 56); stroke-linecap: round; stroke-linejoin: round; transform-origin: 132.72px 177.525px;" id="el1jp1ouu85sa" class="animable"></path><path d="M90.26,147.83S83.21,138,71.9,133.36s-31.72-7.61-32.47-7.61,19.11,6.31,25.23,9.09,14.1,7,16.51,9.65S94.9,165.26,94.9,165.26,94.53,157.84,90.26,147.83Z" style="fill: rgb(146, 227, 169); stroke: rgb(38, 50, 56); stroke-linecap: round; stroke-linejoin: round; transform-origin: 67.1547px 145.505px;" id="elrxjei51xu5c" class="animable"></path><path d="M105.84,175.47s-19.29-28.57-24.67-31-9.65-4.64-16.88-2.78-22.26,10-25,11.5-6.49,4.08-8,4.82,19.11-11.5,30.61-13,13.54,4.09,26,13.73S105.84,175.47,105.84,175.47Z" style="fill: rgb(146, 227, 169); stroke: rgb(38, 50, 56); stroke-linecap: round; stroke-linejoin: round; transform-origin: 68.5257px 158.233px;" id="elmrfcgod8d6j" class="animable"></path><path d="M105.84,175.47S93,155.06,84.32,152.84s-19.1,2.59-22.63,4.63S53,171,51.86,175.47,50,183.26,50,183.26s11.13-18.18,15.58-21,11.31-7.05,13.35-7.42S101.39,166.93,105.84,175.47Z" style="fill: rgb(146, 227, 169); stroke: rgb(38, 50, 56); stroke-linecap: round; stroke-linejoin: round; transform-origin: 77.92px 167.764px;" id="elfgady8ksm7" class="animable"></path><path d="M100.65,164.89S75.79,148.2,62.81,148.38s-29.13,5-33.39,5.75a22.71,22.71,0,0,1-8.54-.37s18.37,5.57,24.49,5.75S71.52,154,78.2,156.17,100.65,164.89,100.65,164.89Z" style="fill: rgb(146, 227, 169); stroke: rgb(38, 50, 56); stroke-linecap: round; stroke-linejoin: round; transform-origin: 60.765px 156.634px;" id="elrc248ke38ck" class="animable"></path><path d="M105.47,182s-8-15-14.65-18.37-13.36,2.6-23.93,6.68-18.55,6.87-18.55,6.87,17.43.92,24.11-1.49S89.7,168.6,92.11,169,105.47,182,105.47,182Z" style="fill: rgb(146, 227, 169); stroke: rgb(38, 50, 56); stroke-linecap: round; stroke-linejoin: round; transform-origin: 76.905px 172.319px;" id="elb5g4s7rp56h" class="animable"></path><path d="M111.25,186.92s-7-38-7-51.94.18-19.85.18-19.85,4.64,18.18,5.2,20.41a31.23,31.23,0,0,1,.56,5.93s3.33-19.66,7.6-24.48a31.88,31.88,0,0,1,9.65-7.24s-4.83,9.09-5.75,11.69,3.89-3.52,9.08-5,18-4.27,18-4.27-17.07,6.87-19.11,9.09-7.05,10.39-7.42,11.32-6.49,11.5-8.16,17.62S111.25,186.92,111.25,186.92Z" style="fill: rgb(38, 50, 56); stroke: rgb(38, 50, 56); stroke-linecap: round; stroke-linejoin: round; transform-origin: 126.51px 148.335px;" id="elf5aw2bdoo0r" class="animable"></path><path d="M115.51,140.73,130,131.09s17.81-2.79,20.78-1.86a34.76,34.76,0,0,1,7.05,3.71s-11.5-1.11-16.51,1.3-16,6.68-22.45,15.39a59.53,59.53,0,0,0-9.64,21.52c-.74,3.16-2.23,9.09-2.23,9.09s-3.34-16.14-2-22.63S115.51,140.73,115.51,140.73Z" style="fill: rgb(146, 227, 169); stroke: rgb(38, 50, 56); stroke-linecap: round; stroke-linejoin: round; transform-origin: 131.256px 154.64px;" id="elyzxt9e5sdbq" class="animable"></path><path d="M97.34,130.34s8.53,11.5,9.83,15.21,3.34-9.27,12.43-17.25S158,115.5,158,115.5s-35.61,17.25-41,24.12-10.57,18.55-10.57,19.1v6.87Z" style="fill: rgb(146, 227, 169); stroke: rgb(38, 50, 56); stroke-linecap: round; stroke-linejoin: round; transform-origin: 127.67px 140.545px;" id="elg8nv6yvpqhg" class="animable"></path><path d="M103.47,154.47s-11.87-20.4-18-27.45S59.14,104.2,59.14,104.2s8.35,10.39,19.11,25,27.82,36.17,27.82,36.17Z" style="fill: rgb(38, 50, 56); stroke: rgb(38, 50, 56); stroke-linecap: round; stroke-linejoin: round; transform-origin: 82.605px 134.785px;" id="el8nk1ycgx989" class="animable"></path><path d="M101.79,194.34s-19.29-15.77-29.5-11.87-21.88,16.32-21.88,16.32l-2.6,14.1S61.54,193,67.47,190.26s14.28-3.9,18.37-3,16.13,11.13,16.69,12.43S101.79,194.34,101.79,194.34Z" style="fill: rgb(146, 227, 169); stroke: rgb(38, 50, 56); stroke-linecap: round; stroke-linejoin: round; transform-origin: 75.24px 197.37px;" id="elce8fw3bdeza" class="animable"></path><path d="M96.78,147.59s-3.71-3.33-6.12-16.69A70.54,70.54,0,0,1,91,105.49a134.21,134.21,0,0,0,4.27,17.25c3,9.27,3,12.61,7.42,26.34s5,38.4,4.82,38.95S96.78,147.59,96.78,147.59Z" style="fill: rgb(146, 227, 169); stroke: rgb(38, 50, 56); stroke-linecap: round; stroke-linejoin: round; transform-origin: 98.6041px 146.763px;" id="elg8pg3m6uze" class="animable"></path><path d="M127.2,151.49s5.75-7.42,13.17-9.65a55,55,0,0,1,15-2s-11.13-3.15-18.55-1.67-13.17,10.21-15.77,18.37-2.6,27.27-2.6,27.27S122.56,158.72,127.2,151.49Z" style="fill: rgb(38, 50, 56); stroke: rgb(38, 50, 56); stroke-linecap: round; stroke-linejoin: round; transform-origin: 136.91px 160.792px;" id="elifxttx4orns" class="animable"></path><path d="M99.3,158.68s.4-7.81-5.81-16.82-18.82-14-27.64-17.83-14-5.4-14-5.4,19.82,15.62,25,17.82a32.75,32.75,0,0,1,12.62,9.41c3.6,4.21,10,19.63,10,20.63S99.3,158.68,99.3,158.68Z" style="fill: rgb(146, 227, 169); stroke: rgb(38, 50, 56); stroke-linecap: round; stroke-linejoin: round; transform-origin: 75.66px 142.6px;" id="elchfsot70n8s" class="animable"></path><path d="M121.64,169.85s7-9.83,18.36-14.46,31.72-7.61,32.46-7.61-19.1,6.31-25.23,9.09-14.09,7-16.51,9.64S117,187.29,117,187.29,117.37,179.87,121.64,169.85Z" style="fill: rgb(146, 227, 169); stroke: rgb(38, 50, 56); stroke-linecap: round; stroke-linejoin: round; transform-origin: 144.74px 167.535px;" id="elgv98ktyqaed" class="animable"></path><path d="M106.05,197.49s19.3-28.56,24.67-31,9.65-4.63,16.88-2.78,22.26,10,25.05,11.5,6.49,4.08,8,4.83-19.1-11.5-30.6-13-13.54,4.08-26,13.73S106.05,197.49,106.05,197.49Z" style="fill: rgb(146, 227, 169); stroke: rgb(38, 50, 56); stroke-linecap: round; stroke-linejoin: round; transform-origin: 143.389px 180.255px;" id="elee609yhhb1t" class="animable"></path><path d="M106.05,197.49s12.8-20.4,21.52-22.63,19.11,2.6,22.63,4.64,8.72,13.54,9.83,18,1.86,7.79,1.86,7.79-11.13-18.18-15.58-21-11.32-7-13.36-7.42S110.51,189,106.05,197.49Z" style="fill: rgb(38, 50, 56); stroke: rgb(38, 50, 56); stroke-linecap: round; stroke-linejoin: round; transform-origin: 133.97px 189.787px;" id="elghllcz9b0u" class="animable"></path><path d="M111.25,186.92s24.85-16.7,37.84-16.51,29.12,5,33.39,5.75a22.91,22.91,0,0,0,8.53-.37s-18.36,5.56-24.48,5.75-26.16-5.56-32.84-3.34S111.25,186.92,111.25,186.92Z" style="fill: rgb(146, 227, 169); stroke: rgb(38, 50, 56); stroke-linecap: round; stroke-linejoin: round; transform-origin: 151.13px 178.664px;" id="eldj7xo9d6sdv" class="animable"></path><path d="M117.93,179.5s-4.27-13,.18-22.45,10.2-22.44,10.2-22.44,2,16.51-1.48,27.64S117.93,179.5,117.93,179.5Z" style="fill: rgb(146, 227, 169); stroke: rgb(38, 50, 56); stroke-linecap: round; stroke-linejoin: round; transform-origin: 122.483px 157.055px;" id="elgm1ogjdqtxq" class="animable"></path><path d="M107.17,189s0-16.14-11.13-23.74-23.56-10-28-7.61-17.81,9.83-21.71,14.84-7,8.9-7,8.9,19.66-13,25.78-17.43,9.09-5.57,11.31-5,15,6.49,20,10.39S107.17,189,107.17,189Z" style="fill: rgb(146, 227, 169); stroke: rgb(38, 50, 56); stroke-linecap: round; stroke-linejoin: round; transform-origin: 73.25px 172.881px;" id="el856vsx6lars" class="animable"></path><path d="M107.54,191.56c-.19-.56.37-4.83-7.24-5.38S87,189,85.65,191.74s0,10.2.19,10.95,1.11-9.83,10-11.88S107.54,191.56,107.54,191.56Z" style="fill: rgb(38, 50, 56); stroke: rgb(38, 50, 56); stroke-linecap: round; stroke-linejoin: round; transform-origin: 96.2984px 194.424px;" id="el8bnipbajwn" class="animable"></path><path d="M104.57,198.42a51.67,51.67,0,0,0-7.23-10.76c-4.83-5.56-15.21-10.76-20.22-7.6s-10.76,16.32-12.62,20-6.12,15-6.49,15.58,10.94-10,15.77-16.32,8.16-15,10.94-15.77,8.53,4.82,8.53,4.82L107,208.25Z" style="fill: rgb(146, 227, 169); stroke: rgb(38, 50, 56); stroke-linecap: round; stroke-linejoin: round; transform-origin: 82.5006px 197.382px;" id="elaogf873m45i" class="animable"></path><path d="M105.31,184.88s-2.41-11.13-10.76-14.1-18.36-4.08-22.26-1.85-21,18-21,18l-2.22,5.75s25-18.36,30.79-20.22,5.75-1.85,11.87,1.86S105.31,184.88,105.31,184.88Z" style="fill: rgb(146, 227, 169); stroke: rgb(38, 50, 56); stroke-linecap: round; stroke-linejoin: round; transform-origin: 77.19px 180.216px;" id="ele3imo2p5wte" class="animable"></path><path d="M103.83,184.88s-24.3-14.66-29.5-16.51-16.88,2.78-20.21,7-15,27.45-15.59,29.12,7.79-18,20.41-23.74,20.77-4.64,28.19-3.9,16.7,13.17,16.7,13.17Z" style="fill: rgb(146, 227, 169); stroke: rgb(38, 50, 56); stroke-linecap: round; stroke-linejoin: round; transform-origin: 71.1654px 186.271px;" id="elz4ybdvpnwir" class="animable"></path><path d="M106.43,204s8-15,14.65-18.36,13.35,2.6,23.93,6.68,18.55,6.86,18.55,6.86-17.44.93-24.12-1.48-17.25-7.05-19.66-6.68S106.43,204,106.43,204Z" style="fill: rgb(146, 227, 169); stroke: rgb(38, 50, 56); stroke-linecap: round; stroke-linejoin: round; transform-origin: 134.995px 194.326px;" id="elplp7ic8cn6p" class="animable"></path><path d="M107.17,189a172.69,172.69,0,0,0,6.49-26.9c2.41-15.21-1.67-42.48-5.57-50.64S92.7,89.91,92.7,89.91s20.4,17.8,24.85,34.5,5.2,25.6,3.34,34.69S107.17,189,107.17,189Z" style="fill: rgb(146, 227, 169); stroke: rgb(38, 50, 56); stroke-linecap: round; stroke-linejoin: round; transform-origin: 107.27px 139.455px;" id="eln80sf509wjl" class="animable"></path><path d="M102.3,165.49s-1.8-6.81-3.8-8.21-6,.2-6,.2,7,6.21,7,9,7.12,19.69,7.12,19.69Z" style="fill: rgb(146, 227, 169); stroke: rgb(38, 50, 56); stroke-linecap: round; stroke-linejoin: round; transform-origin: 99.56px 171.438px;" id="elvewxned6d9" class="animable"></path><path d="M98.5,157.28a63.29,63.29,0,0,0-5.35,4.22C90.8,163.62,79.64,174.68,79,175.35s5.81-14.07,7.26-16.86,4-4.81,4.8-4.69S98.71,155.51,98.5,157.28Z" style="fill: rgb(146, 227, 169); stroke: rgb(38, 50, 56); stroke-linecap: round; stroke-linejoin: round; transform-origin: 88.7301px 164.584px;" id="elhgj7r0u4khl" class="animable"></path><path d="M140.85,233s0,30.4-.65,33.65a7.51,7.51,0,0,1-2.56,4.59L135.16,416.7l-5.36.33,3.25-94.44,1.23-51.33s-2.2.12-2.37-5.24-3.08-27-3.08-27l2.11-.65s3.25,26.82,3.9,27.63,2.44-1.63,2.76-4.23,0-28.93,0-28.93Z" style="fill: rgb(166, 166, 166); stroke: rgb(38, 50, 56); stroke-linecap: round; stroke-linejoin: round; transform-origin: 134.84px 324.935px;" id="elrqxbu5zwz5" class="animable"></path><path d="M134.28,271.26l-.78-.3c-.65-.47-1.49-1.7-1.59-4.94-.16-5.36-3.08-27-3.08-27l2.11-.65s3.25,26.82,3.9,27.63,2.44-1.63,2.76-4.23,0-28.93,0-28.93l3.25.16s0,30.4-.65,33.65a7.51,7.51,0,0,1-2.56,4.59S136.85,272.25,134.28,271.26Z" style="fill: rgb(38, 50, 56); stroke: rgb(38, 50, 56); stroke-linecap: round; stroke-linejoin: round; transform-origin: 134.84px 252.267px;" id="elcmfdmhkc2x4" class="animable"></path><path d="M135.31,232.51s-6.17-8.62-16.09-12.68-27.79-6.67-28.44-6.67,16.74,5.53,22.1,8,12.36,6.18,14.47,8.45,12,18.21,12,18.21A49.57,49.57,0,0,0,135.31,232.51Z" style="fill: rgb(38, 50, 56); stroke: rgb(38, 50, 56); stroke-linecap: round; stroke-linejoin: round; transform-origin: 115.056px 230.49px;" id="el2rk6n4rhn76" class="animable"></path><path d="M152.26,204.46s6.17-8.62,16.09-12.68,27.79-6.67,28.44-6.67-16.74,5.53-22.1,8-12.36,6.17-14.47,8.45-12,18.21-12,18.21A49.51,49.51,0,0,1,152.26,204.46Z" style="fill: rgb(146, 227, 169); stroke: rgb(38, 50, 56); stroke-linecap: round; stroke-linejoin: round; transform-origin: 172.514px 202.44px;" id="eljqhvia3ri58" class="animable"></path><path d="M138.6,228.68s16.91-25,21.62-27.15,8.45-4.06,14.79-2.44,19.51,8.78,22,10.08,5.69,3.58,7,4.23S187.2,203.32,177.13,202s-11.87,3.57-22.76,12S138.6,228.68,138.6,228.68Z" style="fill: rgb(146, 227, 169); stroke: rgb(38, 50, 56); stroke-linecap: round; stroke-linejoin: round; transform-origin: 171.339px 213.582px;" id="el8k2w99ld7u" class="animable"></path><path d="M138.6,228.68s11.22-17.88,18.86-19.84,16.74,2.28,19.83,4.07,7.64,11.86,8.61,15.77,1.63,6.82,1.63,6.82-9.75-15.93-13.65-18.37-9.92-6.17-11.71-6.5S142.5,221.2,138.6,228.68Z" style="fill: rgb(146, 227, 169); stroke: rgb(38, 50, 56); stroke-linecap: round; stroke-linejoin: round; transform-origin: 163.065px 221.917px;" id="elzzokebkg67b" class="animable"></path><path d="M143.15,219.41s21.79-14.63,33.16-14.47,25.52,4.39,29.26,5a20.1,20.1,0,0,0,7.48-.32s-16.09,4.87-21.46,5-22.92-4.88-28.77-2.93S143.15,219.41,143.15,219.41Z" style="fill: rgb(146, 227, 169); stroke: rgb(38, 50, 56); stroke-linecap: round; stroke-linejoin: round; transform-origin: 178.1px 212.174px;" id="el9ywpbx83hei" class="animable"></path><path d="M138.93,234.36s7-13.16,12.84-16.09,11.7,2.28,21,5.85,16.25,6,16.25,6-15.28.81-21.13-1.3-15.12-6.18-17.23-5.85S138.93,234.36,138.93,234.36Z" style="fill: rgb(146, 227, 169); stroke: rgb(38, 50, 56); stroke-linecap: round; stroke-linejoin: round; transform-origin: 163.975px 225.885px;" id="elb0ms5uv9t2e" class="animable"></path><path d="M133.86,238.71S140,205.39,140,193.2s-.16-17.39-.16-17.39-4.06,15.93-4.55,17.88a27.46,27.46,0,0,0-.49,5.2s-2.93-17.23-6.66-21.46a27.89,27.89,0,0,0-8.46-6.34s4.23,8,5,10.24-3.41-3.09-8-4.39S101,173.2,101,173.2s15,6,16.74,8a76,76,0,0,1,6.5,9.92c.33.81,5.69,10.07,7.16,15.44S133.86,238.71,133.86,238.71Z" style="fill: rgb(38, 50, 56); stroke: rgb(38, 50, 56); stroke-linecap: round; stroke-linejoin: round; transform-origin: 120.5px 204.9px;" id="elmn8v78t8n1i" class="animable"></path><path d="M130.13,198.24l-12.68-8.46s-15.61-2.43-18.21-1.62a30.33,30.33,0,0,0-6.18,3.25s10.08-1,14.47,1.14,14,5.85,19.67,13.49a52.09,52.09,0,0,1,8.45,18.86c.65,2.76,1.95,8,1.95,8s2.93-14.14,1.79-19.83S130.13,198.24,130.13,198.24Z" style="fill: rgb(146, 227, 169); stroke: rgb(38, 50, 56); stroke-linecap: round; stroke-linejoin: round; transform-origin: 116.357px 210.447px;" id="elvw4wvh48pj" class="animable"></path><path d="M146.06,189.13s-7.48,10.08-8.62,13.33-2.93-8.12-10.89-15.11S92.9,176.13,92.9,176.13s31.21,15.12,35.93,21.13A78.43,78.43,0,0,1,138.09,214v6Z" style="fill: rgb(146, 227, 169); stroke: rgb(38, 50, 56); stroke-linecap: round; stroke-linejoin: round; transform-origin: 119.48px 198.065px;" id="elvwvyorlxf9" class="animable"></path><path d="M140.68,210.28s10.4-17.88,15.77-24.06,23.08-20,23.08-20-7.32,9.1-16.75,21.94-24.38,31.7-24.38,31.7Z" style="fill: rgb(38, 50, 56); stroke: rgb(38, 50, 56); stroke-linecap: round; stroke-linejoin: round; transform-origin: 158.965px 193.04px;" id="elsv4ja3idjp" class="animable"></path><path d="M142.15,245.21s16.91-13.81,25.85-10.4,19.18,14.3,19.18,14.3l2.28,12.36s-12-17.39-17.23-19.83-12.52-3.42-16.1-2.6S142,248.79,141.5,249.93,142.15,245.21,142.15,245.21Z" style="fill: rgb(146, 227, 169); stroke: rgb(38, 50, 56); stroke-linecap: round; stroke-linejoin: round; transform-origin: 165.417px 247.869px;" id="els1o4g13kv2n" class="animable"></path><path d="M146.54,204.25s3.25-2.92,5.37-14.63a61.83,61.83,0,0,0-.33-22.27,117.8,117.8,0,0,1-3.74,15.12c-2.6,8.13-2.6,11.05-6.5,23.08s-4.39,33.65-4.22,34.14S146.54,204.25,146.54,204.25Z" style="fill: rgb(146, 227, 169); stroke: rgb(38, 50, 56); stroke-linecap: round; stroke-linejoin: round; transform-origin: 144.927px 203.522px;" id="elln0w8kso03" class="animable"></path><path d="M119.89,207.67s-5-6.51-11.55-8.46a48,48,0,0,0-13.16-1.79s9.75-2.76,16.25-1.46,11.54,8.94,13.82,16.09,2.28,23.9,2.28,23.9S124,214,119.89,207.67Z" style="fill: rgb(38, 50, 56); stroke: rgb(38, 50, 56); stroke-linecap: round; stroke-linejoin: round; transform-origin: 111.355px 215.781px;" id="eloknj3ztvrbb" class="animable"></path><path d="M144.34,214s-.36-6.85,5.08-14.75,16.5-12.28,24.22-15.62,12.29-4.73,12.29-4.73S168.55,192.56,164,194.49a28.73,28.73,0,0,0-11.06,8.24c-3.15,3.69-8.77,17.2-8.77,18.08S144.34,214,144.34,214Z" style="fill: rgb(146, 227, 169); stroke: rgb(38, 50, 56); stroke-linecap: round; stroke-linejoin: round; transform-origin: 165.05px 199.89px;" id="elu8ffrhmi9j" class="animable"></path><path d="M124.76,223.76s-6.17-8.62-16.09-12.68-27.8-6.67-28.45-6.67,16.75,5.53,22.11,8,12.35,6.18,14.47,8.45,12,18.21,12,18.21A49.51,49.51,0,0,0,124.76,223.76Z" style="fill: rgb(146, 227, 169); stroke: rgb(38, 50, 56); stroke-linecap: round; stroke-linejoin: round; transform-origin: 104.501px 221.74px;" id="el8mn3xetrf8b" class="animable"></path><path d="M138.42,248s-16.91-25-21.62-27.15-8.46-4.06-14.79-2.44-19.51,8.78-22,10.08-5.69,3.58-7,4.23,16.74-10.08,26.82-11.38,11.87,3.58,22.76,12S138.42,248,138.42,248Z" style="fill: rgb(146, 227, 169); stroke: rgb(38, 50, 56); stroke-linecap: round; stroke-linejoin: round; transform-origin: 105.681px 232.902px;" id="ele5fu6a8inr7" class="animable"></path><path d="M138.42,248s-11.22-17.88-18.86-19.83-16.74,2.27-19.83,4.06S92.09,244.08,91.11,248s-1.62,6.82-1.62,6.82,9.75-15.93,13.65-18.36,9.92-6.18,11.71-6.51S134.51,240.5,138.42,248Z" style="fill: rgb(38, 50, 56); stroke: rgb(38, 50, 56); stroke-linecap: round; stroke-linejoin: round; transform-origin: 113.955px 241.243px;" id="elyuqrtwdjqpp" class="animable"></path><path d="M133.86,238.71s-21.78-14.63-33.16-14.47-25.52,4.39-29.25,5A20.1,20.1,0,0,1,64,229s16.09,4.88,21.46,5,22.91-4.88,28.77-2.93S133.86,238.71,133.86,238.71Z" style="fill: rgb(146, 227, 169); stroke: rgb(38, 50, 56); stroke-linecap: round; stroke-linejoin: round; transform-origin: 98.93px 231.474px;" id="elt6dqn7edm6a" class="animable"></path><path d="M128,232.21s3.74-11.38-.16-19.67-8.94-19.67-8.94-19.67-1.79,14.47,1.3,24.22S128,232.21,128,232.21Z" style="fill: rgb(146, 227, 169); stroke: rgb(38, 50, 56); stroke-linecap: round; stroke-linejoin: round; transform-origin: 124px 212.54px;" id="el1p9fzn5yfxj" class="animable"></path><path d="M137.44,240.5s0-14.14,9.75-20.81,20.65-8.77,24.55-6.66,15.6,8.61,19,13,6.17,7.81,6.17,7.81-17.23-11.38-22.59-15.28-8-4.88-9.92-4.39-13.16,5.69-17.55,9.1S137.44,240.5,137.44,240.5Z" style="fill: rgb(146, 227, 169); stroke: rgb(38, 50, 56); stroke-linecap: round; stroke-linejoin: round; transform-origin: 167.175px 226.371px;" id="elth9rwldj1xm" class="animable"></path><path d="M137.12,242.78c.16-.49-.33-4.23,6.33-4.72s11.71,2.44,12.85,4.88,0,8.94-.17,9.59-1-8.62-8.77-10.4S137.12,242.78,137.12,242.78Z" style="fill: rgb(38, 50, 56); stroke: rgb(38, 50, 56); stroke-linecap: round; stroke-linejoin: round; transform-origin: 146.96px 245.284px;" id="el345p3qrfu05" class="animable"></path><path d="M139.72,248.79a45.08,45.08,0,0,1,6.34-9.43c4.22-4.87,13.32-9.43,17.71-6.66s9.43,14.3,11.06,17.55,5.36,13.17,5.69,13.66A134.79,134.79,0,0,1,166.7,249.6c-4.23-5.52-7.15-13.16-9.59-13.81s-7.48,4.22-7.48,4.22l-12,17.39Z" style="fill: rgb(146, 227, 169); stroke: rgb(38, 50, 56); stroke-linecap: round; stroke-linejoin: round; transform-origin: 159.075px 247.885px;" id="elmhxdt1r1ror" class="animable"></path><path d="M139.07,236.92s2.11-9.75,9.42-12.35,16.1-3.58,19.51-1.63,18.37,15.77,18.37,15.77l1.95,5s-21.95-16.09-27-17.72-5-1.62-10.41,1.63A92.72,92.72,0,0,0,139.07,236.92Z" style="fill: rgb(146, 227, 169); stroke: rgb(38, 50, 56); stroke-linecap: round; stroke-linejoin: round; transform-origin: 163.695px 232.811px;" id="elswd7jst4yft" class="animable"></path><path d="M140.37,236.92s21.29-12.84,25.84-14.46,14.79,2.44,17.72,6.17,13.17,24.06,13.65,25.52-6.82-15.76-17.88-20.8-18.2-4.07-24.7-3.42-14.63,11.55-14.63,11.55Z" style="fill: rgb(146, 227, 169); stroke: rgb(38, 50, 56); stroke-linecap: round; stroke-linejoin: round; transform-origin: 168.986px 238.166px;" id="elr8luwaa75p" class="animable"></path><path d="M138.09,253.67s-7-13.17-12.84-16.1-11.7,2.28-21,5.86-16.25,6-16.25,6,15.28.81,21.13-1.3,15.11-6.18,17.23-5.85S138.09,253.67,138.09,253.67Z" style="fill: rgb(146, 227, 169); stroke: rgb(38, 50, 56); stroke-linecap: round; stroke-linejoin: round; transform-origin: 113.045px 245.19px;" id="elfg4ysrosec" class="animable"></path><path d="M137.44,240.5a150.74,150.74,0,0,1-5.69-23.57c-2.11-13.33,1.46-37.22,4.88-44.38s13.49-18.85,13.49-18.85-17.88,15.6-21.78,30.23-4.55,22.43-2.93,30.4S137.44,240.5,137.44,240.5Z" style="fill: rgb(146, 227, 169); stroke: rgb(38, 50, 56); stroke-linecap: round; stroke-linejoin: round; transform-origin: 137.351px 197.1px;" id="elzifyeeb5vs" class="animable"></path><path d="M141.7,219.93s1.58-6,3.34-7.19,5.26.17,5.26.17-6.14,5.44-6.14,7.9-6.24,17.25-6.24,17.25Z" style="fill: rgb(146, 227, 169); stroke: rgb(38, 50, 56); stroke-linecap: round; stroke-linejoin: round; transform-origin: 144.11px 225.156px;" id="el68saq29lqru" class="animable"></path><path d="M145,212.74a55.63,55.63,0,0,1,4.68,3.7c2.06,1.86,11.84,11.54,12.43,12.13s-5.09-12.33-6.36-14.77-3.52-4.21-4.21-4.11S144.85,211.19,145,212.74Z" style="fill: rgb(146, 227, 169); stroke: rgb(38, 50, 56); stroke-linecap: round; stroke-linejoin: round; transform-origin: 153.575px 219.138px;" id="eluopilc43je" class="animable"></path><path d="M140.06,298.81s15-5.46,24.08-8.5,16,4.45,16,4.45-11.33,1.62-15.38,1.82S154.63,297,151,298.4s7.28,1.22,10.92,4.86,11.33,12.95,12.54,15.78-12.34-13.35-21.85-15.78a22.58,22.58,0,0,0-17,2.63Z" style="fill: rgb(38, 50, 56); stroke: rgb(38, 50, 56); stroke-linecap: round; stroke-linejoin: round; transform-origin: 157.875px 304.477px;" id="el4dmw7bj1mit" class="animable"></path><path d="M125.29,321.06s1.42,6.68,0,25.29-2.83,45.12-2.83,45.12l4.85.61s2.43-52.2,2.43-55.64.2-15.78.2-15.78Z" style="fill: rgb(166, 166, 166); stroke: rgb(38, 50, 56); stroke-linecap: round; stroke-linejoin: round; transform-origin: 126.2px 356.37px;" id="el85ix1vlwwg3" class="animable"></path><path d="M129.14,301.44c-.38-.82-6.07-12.95-9.11-15s-10.72-4.86-14.16-4.86-12.34,1-12.34,1,15.78,3.64,20.23,7.08S125.9,301,126.1,302.45a24.05,24.05,0,0,0,1.82,4.65S131.36,306.29,129.14,301.44Z" style="fill: rgb(146, 227, 169); stroke: rgb(38, 50, 56); stroke-linecap: round; stroke-linejoin: round; transform-origin: 111.708px 294.34px;" id="el9uvklxrywkm" class="animable"></path><path d="M124.68,309.33s-12.13-1.42-16.59,1.82-12.34,12.34-12.34,17.2.41,16,.41,15,2.22-16.79,7.28-21.65,7.28-7.69,14-8.5l6.68-.81L131,316Z" style="fill: rgb(38, 50, 56); stroke: rgb(38, 50, 56); stroke-linecap: round; stroke-linejoin: round; transform-origin: 113.375px 326.217px;" id="eln0xs96k15kp" class="animable"></path><path d="M134,306.39s2.42-2,11.12-3.24,11.13-2,16.59-1A76.21,76.21,0,0,1,173,305.38s-17.4-.41-19-.41,10.52,7.89,12.74,10.32,4.25,7.49,4.25,7.49-17.4-12.55-20.43-14a36,36,0,0,1-4.25-2.23s-4.86-.81-6.88-.2-3.64,1.21-4.25,1.41-2.83.81-2.83.81Z" style="fill: rgb(146, 227, 169); stroke: rgb(38, 50, 56); stroke-linecap: round; stroke-linejoin: round; transform-origin: 152.675px 312.234px;" id="elz6v5fr8f86" class="animable"></path><path d="M131.36,299.82s1-11.73,6.68-17,25.08-15.38,25.08-15.38l11.94-5.87s-3.44,7.69-10.72,10.72-9.71.81-13.15,4.46-8.9,11.12-9.92,14.56-7.68,12.95-8.09,15.18S131.36,299.82,131.36,299.82Z" style="fill: rgb(146, 227, 169); stroke: rgb(38, 50, 56); stroke-linecap: round; stroke-linejoin: round; transform-origin: 153.21px 284.209px;" id="el3uhup1iyvl" class="animable"></path><path d="M132.17,303.06s1.21-18.21-.81-22.87-8.29-15.37-9.71-17.8a30.64,30.64,0,0,0-3.24-4.45s5.06,16,6.48,24.28,1.61,10.92,2,14.36.81,6.48.81,6.48Z" style="fill: rgb(146, 227, 169); stroke: rgb(38, 50, 56); stroke-linecap: round; stroke-linejoin: round; transform-origin: 125.47px 280.5px;" id="el8wogx4onqc6" class="animable"></path><path d="M129.54,309.73A82.47,82.47,0,0,1,136.22,296c4-6.48,9.91-7.89,10.92-7.89h4.45s-7.89,3.84-8.9,7.48-3.24,11.13-4.86,12.75-5.66,10.11-6.67,12.14a7.57,7.57,0,0,1-3.64,3S123.87,318,129.54,309.73Z" style="fill: rgb(146, 227, 169); stroke: rgb(38, 50, 56); stroke-linecap: round; stroke-linejoin: round; transform-origin: 138.977px 305.795px;" id="elyulc8m8104i" class="animable"></path><path d="M132.78,310.34l-5.26,13.15,1.62,1.42s2.42-2.84,4.24-5.47,3.24-4.65,3.24-5.86S132.78,310.34,132.78,310.34Z" style="fill: rgb(146, 227, 169); stroke: rgb(38, 50, 56); stroke-linecap: round; stroke-linejoin: round; transform-origin: 132.07px 317.625px;" id="elxymyt4ps0zp" class="animable"></path><path d="M130.68,321.43S123,304.64,120.56,301s-5.06-6.68-10.32-8.09-14.16-4.05-22-2.63-21.44,3.23-21.44,3.23a48.84,48.84,0,0,0,21.44,3.65,195.28,195.28,0,0,1,22-.21s2.43,1,4.25,6.88a33.64,33.64,0,0,0,8.1,13.36,75.31,75.31,0,0,1,6.47,7.68Z" style="fill: rgb(146, 227, 169); stroke: rgb(38, 50, 56); stroke-linecap: round; stroke-linejoin: round; transform-origin: 98.74px 307.371px;" id="elujwsjmpbmti" class="animable"></path><path d="M132.17,303.06s-8.5-3.44-10.52-.41-5.26,18.82-5.26,18.82-1.62,8.29-2,9.1,10.72-7.69,13.35-15S132.17,303.06,132.17,303.06Z" style="fill: rgb(146, 227, 169); stroke: rgb(38, 50, 56); stroke-linecap: round; stroke-linejoin: round; transform-origin: 123.275px 316.013px;" id="elisr9rrggtz" class="animable"></path><path d="M140.26,308.32s-7.48.2-7.48,2,1,5.06.6,9.1-.81,7.69-.81,7.69,8.1-3.44,8.5-8.09A45.68,45.68,0,0,0,140.26,308.32Z" style="fill: rgb(146, 227, 169); stroke: rgb(38, 50, 56); stroke-linecap: round; stroke-linejoin: round; transform-origin: 136.84px 317.715px;" id="elm8h4twmoz7" class="animable"></path><path d="M143.87,308.3s7.69,5.26,10.32,10.12,4.65,15,4.65,15-5.26-10.12-9.31-15.58-10.11-9.91-11.33-8.5S141,307.09,143.87,308.3Z" style="fill: rgb(38, 50, 56); stroke: rgb(38, 50, 56); stroke-linecap: round; stroke-linejoin: round; transform-origin: 148.408px 320.735px;" id="elcqis3277fkl" class="animable"></path><polygon points="140.65 444.87 98.95 444.87 90.01 387.89 149.58 387.89 140.65 444.87" style="fill: rgb(38, 50, 56); stroke: rgb(38, 50, 56); stroke-linecap: round; stroke-linejoin: round; transform-origin: 119.795px 416.38px;" id="eley8xwqsrkjc" class="animable"></polygon><polygon points="145.25 447.89 93.05 447.89 90.44 442.71 147.86 442.71 145.25 447.89" style="fill: rgb(38, 50, 56); stroke: rgb(38, 50, 56); stroke-linecap: round; stroke-linejoin: round; transform-origin: 119.15px 445.3px;" id="elwsyht5u28g" class="animable"></polygon></g><defs>     <filter id="active" height="200%">         <feMorphology in="SourceAlpha" result="DILATED" operator="dilate" radius="2"></feMorphology>                <feFlood flood-color="#32DFEC" flood-opacity="1" result="PINK"></feFlood>        <feComposite in="PINK" in2="DILATED" operator="in" result="OUTLINE"></feComposite>        <feMerge>            <feMergeNode in="OUTLINE"></feMergeNode>            <feMergeNode in="SourceGraphic"></feMergeNode>        </feMerge>    </filter>    <filter id="hover" height="200%">        <feMorphology in="SourceAlpha" result="DILATED" operator="dilate" radius="2"></feMorphology>                <feFlood flood-color="#ff0000" flood-opacity="0.5" result="PINK"></feFlood>        <feComposite in="PINK" in2="DILATED" operator="in" result="OUTLINE"></feComposite>        <feMerge>            <feMergeNode in="OUTLINE"></feMergeNode>            <feMergeNode in="SourceGraphic"></feMergeNode>        </feMerge>            <feColorMatrix type="matrix" values="0   0   0   0   0                0   1   0   0   0                0   0   0   0   0                0   0   0   1   0 "></feColorMatrix>    </filter></defs></svg>